<svg width="16" height="16" viewBox="0 0 16 16" fill="currentColor" xmlns="http://www.w3.org/2000/svg">
<path d="M7.99973 15.1668C4.53306 15.1668 1.71973 12.3468 1.71973 8.88676C1.71973 5.42676 4.53306 2.6001 7.99973 2.6001C8.71306 2.6001 9.40639 2.7001 10.0731 2.90676C10.3397 2.98676 10.4864 3.26676 10.4064 3.53343C10.3264 3.8001 10.0464 3.94676 9.77973 3.86676C9.21306 3.69343 8.61306 3.6001 7.99973 3.6001C5.08639 3.6001 2.71973 5.96676 2.71973 8.8801C2.71973 11.7934 5.08639 14.1601 7.99973 14.1601C10.9131 14.1601 13.2797 11.7934 13.2797 8.8801C13.2797 7.82676 12.9731 6.81343 12.3931 5.94676C12.2397 5.7201 12.2997 5.40676 12.5331 5.25343C12.7597 5.1001 13.0731 5.1601 13.2264 5.39343C13.9197 6.42676 14.2864 7.63343 14.2864 8.88676C14.2797 12.3468 11.4664 15.1668 7.99973 15.1668Z" fill="currentColor"/>
<path d="M10.7536 4.04664C10.6136 4.04664 10.4736 3.98664 10.3736 3.87331L8.44696 1.65998C8.26696 1.45331 8.28696 1.13331 8.49363 0.95331C8.7003 0.77331 9.0203 0.79331 9.2003 0.999976L11.127 3.21331C11.307 3.41998 11.287 3.73998 11.0803 3.91998C10.9936 4.00664 10.8736 4.04664 10.7536 4.04664Z" fill="currentColor"/>
<path d="M8.50648 5.68647C8.35315 5.68647 8.19982 5.61314 8.09982 5.47981C7.93982 5.25981 7.98648 4.94647 8.20648 4.77981L10.4531 3.13981C10.6731 2.97314 10.9865 3.02647 11.1531 3.24647C11.3198 3.46647 11.2665 3.77981 11.0465 3.94647L8.79982 5.59314C8.71315 5.65981 8.61315 5.68647 8.50648 5.68647Z" fill="currentColor"/>
</svg>
